<svg width="16" height="16" viewBox="0 0 16 16" fill="none" xmlns="http://www.w3.org/2000/svg">
<path d="M14.5 8C14.5 6.71449 14.1188 5.45785 13.4047 4.38896C12.6905 3.32008 11.6754 2.48696 10.4878 1.99494C9.30019 1.50292 7.99334 1.3741 6.73251 1.62478C5.47168 1.87545 4.31349 2.49435 3.40438 3.40323C2.49527 4.31211 1.87608 5.47015 1.62509 6.73092C1.37411 7.99169 1.5026 9.29857 1.99432 10.4863C2.48604 11.6741 3.31891 12.6893 4.38761 13.4038C5.45632 14.1182 6.71287 14.4997 7.99837 14.5H8L8.00163 14.4999C9.72465 14.4976 11.3764 13.812 12.5946 12.5934C13.8128 11.3749 14.498 9.72302 14.5 8V8ZM8.5 13.477V9.50006H10C10.1326 9.50006 10.2598 9.44738 10.3536 9.35362C10.4473 9.25985 10.5 9.13267 10.5 9.00006C10.5 8.86745 10.4473 8.74028 10.3536 8.64651C10.2598 8.55274 10.1326 8.50006 10 8.50006H8.5V7.00006C8.5003 6.73494 8.60575 6.48076 8.79322 6.29328C8.98069 6.10581 9.23487 6.00036 9.5 6.00006H10.5C10.6326 6.00006 10.7598 5.94738 10.8536 5.85362C10.9473 5.75985 11 5.63267 11 5.50006C11 5.36745 10.9473 5.24028 10.8536 5.14651C10.7598 5.05274 10.6326 5.00006 10.5 5.00006H9.5C8.96975 5.00066 8.46139 5.21156 8.08644 5.58651C7.7115 5.96145 7.5006 6.46981 7.5 7.00006V8.50006H6C5.86739 8.50006 5.74021 8.55274 5.64645 8.64651C5.55268 8.74028 5.5 8.86745 5.5 9.00006C5.5 9.13267 5.55268 9.25985 5.64645 9.35362C5.74021 9.44738 5.86739 9.50006 6 9.50006H7.5V13.477C6.0905 13.3483 4.78485 12.6812 3.85465 11.6145C2.92445 10.5477 2.4413 9.16341 2.5057 7.74952C2.5701 6.33562 3.17709 5.00097 4.20042 4.02319C5.22375 3.04541 6.58464 2.49977 8 2.49977C9.41536 2.49977 10.7762 3.04541 11.7996 4.02319C12.8229 5.00097 13.4299 6.33562 13.4943 7.74952C13.5587 9.16341 13.0756 10.5477 12.1454 11.6145C11.2151 12.6812 9.9095 13.3483 8.5 13.477V13.477Z" fill="white"/>
</svg>
