<svg width="16" height="16" viewBox="0 0 16 16" fill="none" xmlns="http://www.w3.org/2000/svg">
<path d="M8 4.79531C6.22656 4.79531 4.79531 6.22656 4.79531 8C4.79531 9.77344 6.22656 11.2047 8 11.2047C9.77344 11.2047 11.2047 9.77344 11.2047 8C11.2047 6.22656 9.77344 4.79531 8 4.79531ZM8 10.0828C6.85312 10.0828 5.91719 9.14688 5.91719 8C5.91719 6.85312 6.85312 5.91719 8 5.91719C9.14687 5.91719 10.0828 6.85312 10.0828 8C10.0828 9.14688 9.14687 10.0828 8 10.0828ZM11.3359 3.91719C10.9219 3.91719 10.5875 4.25156 10.5875 4.66563C10.5875 5.07969 10.9219 5.41406 11.3359 5.41406C11.75 5.41406 12.0844 5.08125 12.0844 4.66563C12.0845 4.5673 12.0652 4.46992 12.0277 4.37906C11.9901 4.2882 11.935 4.20565 11.8654 4.13612C11.7959 4.0666 11.7134 4.01148 11.6225 3.97391C11.5316 3.93634 11.4343 3.91706 11.3359 3.91719V3.91719ZM14.2469 8C14.2469 7.1375 14.2547 6.28281 14.2063 5.42188C14.1578 4.42188 13.9297 3.53438 13.1984 2.80313C12.4656 2.07031 11.5797 1.84375 10.5797 1.79531C9.71719 1.74688 8.8625 1.75469 8.00156 1.75469C7.13906 1.75469 6.28437 1.74688 5.42344 1.79531C4.42344 1.84375 3.53594 2.07188 2.80469 2.80313C2.07187 3.53594 1.84531 4.42188 1.79687 5.42188C1.74844 6.28438 1.75625 7.13906 1.75625 8C1.75625 8.86094 1.74844 9.71719 1.79687 10.5781C1.84531 11.5781 2.07344 12.4656 2.80469 13.1969C3.5375 13.9297 4.42344 14.1562 5.42344 14.2047C6.28594 14.2531 7.14062 14.2453 8.00156 14.2453C8.86406 14.2453 9.71875 14.2531 10.5797 14.2047C11.5797 14.1562 12.4672 13.9281 13.1984 13.1969C13.9313 12.4641 14.1578 11.5781 14.2063 10.5781C14.2563 9.71719 14.2469 8.8625 14.2469 8V8ZM12.8719 11.6844C12.7578 11.9687 12.6203 12.1812 12.4 12.4C12.1797 12.6203 11.9687 12.7578 11.6844 12.8719C10.8625 13.1984 8.91094 13.125 8 13.125C7.08906 13.125 5.13594 13.1984 4.31406 12.8734C4.02969 12.7594 3.81719 12.6219 3.59844 12.4016C3.37812 12.1813 3.24062 11.9703 3.12656 11.6859C2.80156 10.8625 2.875 8.91094 2.875 8C2.875 7.08906 2.80156 5.13594 3.12656 4.31406C3.24062 4.02969 3.37812 3.81719 3.59844 3.59844C3.81875 3.37969 4.02969 3.24063 4.31406 3.12656C5.13594 2.80156 7.08906 2.875 8 2.875C8.91094 2.875 10.8641 2.80156 11.6859 3.12656C11.9703 3.24063 12.1828 3.37813 12.4016 3.59844C12.6219 3.81875 12.7594 4.02969 12.8734 4.31406C13.1984 5.13594 13.125 7.08906 13.125 8C13.125 8.91094 13.1984 10.8625 12.8719 11.6844Z" fill="white"/>
</svg>
